<svg width="120" height="120" viewBox="0 0 120 120" fill="none" xmlns="http://www.w3.org/2000/svg">
<path d="M37.6649 108.378L37.665 108.378C37.6774 108.375 37.6897 108.372 37.702 108.369C37.8022 108.344 37.9018 108.319 38.0006 108.294C39.6609 107.881 41.1306 107.515 42.4652 106.76C43.7997 106.004 44.8696 104.932 46.0782 103.721C46.159 103.64 46.2404 103.558 46.3226 103.476L106.58 43.2189L106.753 43.0454C109.09 40.7092 111.103 38.6962 112.498 36.8675C113.994 34.9075 115.126 32.7277 115.126 30.0413C115.126 27.3548 113.994 25.175 112.498 23.2151C111.103 21.3863 109.09 19.3733 106.753 17.0371L106.58 16.8636L103.091 13.3747L102.917 13.2012C100.581 10.8647 98.5683 8.85156 96.7395 7.45625C94.7796 5.96089 92.5998 4.82865 89.9133 4.82865C87.2269 4.82865 85.047 5.96089 83.0871 7.45625C81.2584 8.85154 79.2455 10.8647 76.9093 13.2011L76.7357 13.3747L16.4784 73.632C16.3963 73.7141 16.3147 73.7955 16.2337 73.8764C15.0226 75.0849 13.9504 76.1548 13.1948 77.4894C12.4392 78.824 12.0734 80.2938 11.6602 81.9541C11.6325 82.0651 11.6047 82.177 11.5765 82.2897L5.89365 105.021C5.87714 105.087 5.86052 105.154 5.84384 105.22C5.55131 106.388 5.2389 107.636 5.13641 108.683C5.02358 109.837 5.04987 111.783 6.61092 113.344C8.17194 114.905 10.118 114.931 11.2714 114.818C12.319 114.716 13.5664 114.403 14.7344 114.111C14.801 114.094 14.8674 114.077 14.9334 114.061L37.6649 108.378Z" stroke="#E0E0E0" stroke-width="7.4544"/>
<path d="M69.4358 17.7548L94.0089 1.37268L118.582 25.9458L102.2 50.5189L69.4358 17.7548Z" fill="#E0E0E0"/>
</svg>
