<svg width="18" height="14" viewBox="0 0 18 14" fill="none" xmlns="http://www.w3.org/2000/svg">
<g clip-path="url(#clip0_194_76)">
<path d="M15.4432 0.583252H2.55685C1.98742 0.583831 1.44149 0.799121 1.03885 1.18188C0.636201 1.56464 0.409728 2.08361 0.409119 2.62492V11.3749C0.409728 11.9162 0.636201 12.4352 1.03885 12.818C1.44149 13.2007 1.98742 13.416 2.55685 13.4166H15.4432C16.0126 13.416 16.5586 13.2007 16.9612 12.818C17.3639 12.4352 17.5903 11.9162 17.5909 11.3749V2.62492C17.5903 2.08361 17.3639 1.56464 16.9612 1.18188C16.5586 0.799121 16.0126 0.583831 15.4432 0.583252ZM14.8994 3.96039L9.37665 8.04372C9.26896 8.12331 9.13644 8.16651 9.00003 8.16651C8.86362 8.16651 8.7311 8.12331 8.62341 8.04372L3.10068 3.96039C3.03579 3.91381 2.98129 3.85543 2.94034 3.78865C2.8994 3.72188 2.87282 3.64803 2.86215 3.5714C2.85148 3.49477 2.85694 3.41689 2.87821 3.34229C2.89948 3.26769 2.93614 3.19784 2.98605 3.13682C3.03596 3.0758 3.09812 3.02482 3.16894 2.98684C3.23976 2.94885 3.31781 2.92463 3.39856 2.91557C3.47931 2.90651 3.56115 2.91279 3.63932 2.93406C3.71749 2.95533 3.79044 2.99115 3.85392 3.03945L9.00003 6.84424L14.1461 3.03945C14.2748 2.94707 14.4366 2.90656 14.5964 2.92666C14.7563 2.94677 14.9014 3.02589 15.0004 3.1469C15.0994 3.26791 15.1442 3.4211 15.1253 3.57333C15.1064 3.72556 15.0253 3.8646 14.8994 3.96039Z" fill="#3C3C3C"/>
</g>
<defs>
<clipPath id="clip0_194_76">
<rect width="18" height="14" fill="white"/>
</clipPath>
</defs>
</svg>
